<svg width="20" height="20" viewBox="0 0 20 20" fill="none" xmlns="http://www.w3.org/2000/svg">
<path d="M19.5303 9.76393C19.8232 9.46912 19.8232 8.99113 19.5303 8.69631L13.322 2.44722C12.6867 1.80772 12.1569 1.27444 11.6798 0.908023C11.1762 0.521268 10.6441 0.25 10 0.25C9.35587 0.25 8.82379 0.521268 8.32019 0.908024C7.84307 1.27444 7.31331 1.80772 6.67801 2.44723L0.46967 8.69631C0.176777 8.99113 0.176777 9.46912 0.46967 9.76393C0.762563 10.0587 1.23744 10.0587 1.53033 9.76393L1.95999 9.33145V12.6359C1.95999 15.8796 4.1781 18.6966 7.31545 19.4373C9.08118 19.8542 10.9188 19.8542 12.6845 19.4373C15.8219 18.6966 18.04 15.8796 18.04 12.6359V9.33143L18.4697 9.76393C18.7626 10.0587 19.2374 10.0587 19.5303 9.76393Z" fill="#9935ED"/>
</svg>
